<?xml version="1.0" encoding="UTF-8"?>
<svg id="Layer_1" xmlns="http://www.w3.org/2000/svg" viewBox="0 0 595.28 595.28">
  <defs>
    <style>
      .cls-1 {
        fill: #c39e70;
      }

      .cls-2 {
        fill: #526653;
      }
    </style>
  </defs>
  <g>
    <path class="cls-1" d="M561.36,254.8h-3.21v2.48h.21c2.92,0,5.29,2.37,5.29,5.29v64.19c0,2.92-2.37,5.29-5.29,5.29h-.21v2.48h3.21c4.8,0,8.69-3.89,8.69-8.69v-62.35c0-4.8-3.89-8.69-8.69-8.69"/>
    <path class="cls-1" d="M477.66,263.48v62.35c0,4.8,3.89,8.69,8.69,8.69h3.21v-2.48h-.21c-2.92,0-5.29-2.37-5.29-5.29v-64.19c0-2.92,2.37-5.29,5.29-5.29h.21v-2.48h-3.21c-4.8,0-8.69,3.89-8.69,8.69"/>
    <path class="cls-1" d="M494.72,249.56v90.19c0,4.8,3.89,8.69,8.69,8.69h3.21v-2.48h-.21c-2.92,0-5.29-2.37-5.29-5.29v-92.03c0-2.92,2.37-5.29,5.29-5.29h.21v-2.48h-3.21c-4.8,0-8.69,3.89-8.69,8.69"/>
    <path class="cls-1" d="M544.31,240.87h-3.21v2.48h.21c2.92,0,5.29,2.37,5.29,5.29v87.72s0,4.31,0,4.31c0,2.92-2.37,5.29-5.29,5.29h-.21v2.48h3.21c4.8,0,8.69-3.89,8.69-8.69v-90.19c0-4.8-3.89-8.69-8.69-8.69"/>
    <path class="cls-1" d="M527.25,228.24h-6.78c-4.8,0-8.69,3.89-8.69,8.69v115.46c0,4.8,3.89,8.69,8.69,8.69h1.62v5.95h3.55v-5.95h1.62c4.8,0,8.69-3.89,8.69-8.69v-115.46c0-4.8-3.89-8.69-8.69-8.69M529.54,353.31c0,2.44-1.66,4.47-3.91,5.08v-6.46h-3.55v6.46c-2.25-.61-3.91-2.64-3.91-5.08v-117.3c0-2.92,2.37-5.29,5.29-5.29h.79c2.92,0,5.29,2.37,5.29,5.29v117.3Z"/>
  </g>
  <g>
    <path class="cls-2" d="M43.97,340.58c1.61-1.6,2.42-3.94,2.42-6.97v-14.52c0-5.91-3.27-9.3-8.98-9.3s-8.98,3.39-8.98,9.3v14.52c0,5.91,3.27,9.3,8.98,9.3,1.2,0,2.27-.14,3.18-.41.87,2.41,2.68,3.63,5.39,3.63h1.66v-4.57h-1.36c-1.22,0-1.89-.27-2.31-.98M41.82,318.87v14.96c0,3-1.48,4.52-4.41,4.52s-4.37-1.48-4.37-4.52v-14.96c0-3.04,1.43-4.52,4.37-4.52s4.41,1.52,4.41,4.52"/>
    <path class="cls-2" d="M67.75,333.4c0,3.04-1.4,4.52-4.28,4.52s-4.33-1.44-4.33-4.52v-23.61h-4.61v23.39c0,5.91,3.23,9.3,8.85,9.3s8.85-3.39,8.85-9.3v-23.39h-4.48v23.61Z"/>
    <path class="cls-2" d="M87.96,309.79h-8.85v32.25h8.85c5.9,0,8.89-3.09,8.89-9.17v-13.91c0-6.08-2.99-9.17-8.89-9.17M83.72,314.35h4.16c3.18,0,4.37,1.22,4.37,4.52v14.08c0,3.29-1.18,4.52-4.37,4.52h-4.16v-23.12Z"/>
    <path class="cls-2" d="M121.15,337.09v-3.87c0-3.76-1.04-6.14-3.25-7.32,2.21-1.24,3.25-3.51,3.25-6.98v-.79c0-5.53-2.99-8.33-8.89-8.33h-8.52v32.25h4.61v-13.6h3.36c4.09,0,4.87,1.6,4.87,4.56v4.05c0,2.35.17,3.4.49,4.5l.14.49h4.82l-.39-1.02c-.43-1.12-.49-2.69-.49-3.93M116.54,318.7v.79c0,2.28-.6,4.39-4.91,4.39h-3.28v-9.52h3.86c3.15,0,4.32,1.18,4.32,4.34"/>
    <path class="cls-2" d="M136.36,309.79l-7.44,32.25h4.49l1.46-6.51h8.26l1.46,6.51h4.79l-7.53-32.25h-5.49ZM142.06,330.96h-6.15l3.06-13.64,3.09,13.64Z"/>
    <polygon class="cls-2" points="169.61 323.43 160.88 323.43 160.88 309.79 156.27 309.79 156.27 342.04 160.88 342.04 160.88 327.95 169.61 327.95 169.61 342.04 174.22 342.04 174.22 309.79 169.61 309.79 169.61 323.43"/>
    <path class="cls-2" d="M213.16,337.09v-3.87c0-3.76-1.04-6.14-3.25-7.32,2.21-1.24,3.25-3.51,3.25-6.98v-.79c0-5.53-2.99-8.33-8.89-8.33h-8.52v32.25h4.61v-13.6h3.36c4.09,0,4.87,1.6,4.87,4.56v4.05c0,2.36.17,3.4.49,4.5l.14.49h4.82l-.39-1.02c-.43-1.12-.49-2.69-.49-3.93M200.36,314.35h3.86c3.15,0,4.33,1.18,4.33,4.34v.79c0,2.28-.6,4.39-4.91,4.39h-3.28v-9.52Z"/>
    <polygon class="cls-2" points="220.92 342.04 237.08 342.04 237.08 337.47 225.53 337.47 225.53 327.95 234.99 327.95 234.99 323.43 225.53 323.43 225.53 314.35 237.08 314.35 237.08 309.79 220.92 309.79 220.92 342.04"/>
    <path class="cls-2" d="M251.4,309.79l-7.44,32.25h4.49l1.46-6.51h8.26l1.46,6.51h4.79l-7.53-32.25h-5.49ZM257.1,330.96h-6.15l3.06-13.64,3.09,13.64Z"/>
    <polygon class="cls-2" points="275.92 309.79 271.31 309.79 271.31 342.04 286.97 342.04 286.97 337.47 275.92 337.47 275.92 309.79"/>
    <polygon class="cls-2" points="308.49 342.04 324.64 342.04 324.64 337.47 313.1 337.47 313.1 327.95 322.55 327.95 322.55 323.43 313.1 323.43 313.1 314.35 324.64 314.35 324.64 309.79 308.49 309.79 308.49 342.04"/>
    <path class="cls-2" d="M341.95,324.19c-4.94-2.37-5.68-3.43-5.68-5.85s1.6-4.03,4.07-4.03c2.6,0,4.16,1.57,4.16,4.21v1.42h4.4v-1.47c0-5.36-3.28-8.68-8.56-8.68s-8.68,3.39-8.68,8.64c0,4.61,1.89,7.16,7.24,9.73,4.86,2.31,5.6,3.43,5.6,6.07s-1.64,4.21-4.29,4.21-4.28-1.61-4.28-4.21v-1.95h-4.4v2c0,5.33,3.33,8.64,8.68,8.64s8.85-3.44,8.85-8.77c0-4.78-1.86-7.38-7.12-9.95"/>
    <polygon class="cls-2" points="374.19 309.79 355.95 309.79 355.95 314.35 362.77 314.35 362.77 342.04 367.38 342.04 367.38 314.35 374.19 314.35 374.19 309.79"/>
    <path class="cls-2" d="M388.52,309.79l-7.44,32.25h4.49l1.46-6.51h8.26l1.46,6.51h4.79l-7.53-32.25h-5.49ZM394.22,330.96h-6.15l3.06-13.64,3.09,13.64Z"/>
    <polygon class="cls-2" points="408.43 314.35 415.25 314.35 415.25 342.04 419.86 342.04 419.86 314.35 426.68 314.35 426.68 309.79 408.43 309.79 408.43 314.35"/>
    <polygon class="cls-2" points="449.72 314.35 449.72 309.79 433.56 309.79 433.56 342.04 449.72 342.04 449.72 337.47 438.17 337.47 438.17 327.95 447.63 327.95 447.63 323.43 438.17 323.43 438.17 314.35 449.72 314.35"/>
    <path class="cls-2" d="M307.69,265.81c0-3.4-2.76-6.16-6.16-6.16h-28.86c-3.4,0-6.16,2.76-6.16,6.16v11.09c0,3.4,2.76,6.16,6.16,6.16h28.86c3.4,0,6.16-2.77,6.16-6.16v-11.09ZM301.66,265.81v11.09c0,.07-.07.14-.14.14h-28.86c-.07,0-.14-.07-.14-.14v-11.09c0-.07.07-.14.14-.14h28.86c.07,0,.14.07.14.14"/>
    <path class="cls-2" d="M319.65,287.39c0,.07-.07.14-.14.14h-12.58v6.02h12.58c3.4,0,6.16-2.76,6.16-6.16v-27.66h-6.02v27.66Z"/>
    <path class="cls-2" d="M443.55,259.65h-28.86c-3.4,0-6.16,2.76-6.16,6.16v11.09s.01.09.01.14h-31.87s.01-.09.01-.14v-11.09c0-3.4-2.76-6.16-6.16-6.16h-32.9v6.02h32.9c.07,0,.14.07.14.14v11.09c0,.07-.07.14-.14.14h-32.9v6.02h32.9c2.07,0,3.9-1.04,5.02-2.61,1.13,1.57,2.96,2.61,5,2.61h63.01c3.4,0,6.16-2.76,6.16-6.16v-11.09c0-3.4-2.77-6.16-6.16-6.16M414.56,276.89v-11.09c0-.07.07-.14.14-.14h28.86c.07,0,.14.07.14.14v11.09c0,.07-.07.14-.14.14h-28.86c-.07,0-.14-.07-.14-.14"/>
    <rect class="cls-2" x="276.49" y="249.15" width="9.12" height="6.02"/>
    <rect class="cls-2" x="288.58" y="249.15" width="9.13" height="6.02"/>
    <rect class="cls-2" x="418.52" y="249.15" width="9.13" height="6.02"/>
    <rect class="cls-2" x="430.6" y="249.15" width="9.13" height="6.02"/>
    <rect class="cls-2" x="35.21" y="249.15" width="9.13" height="6.02"/>
    <rect class="cls-2" x="47.3" y="249.15" width="9.13" height="6.02"/>
    <rect class="cls-2" x="67.01" y="287.53" width="9.13" height="6.02"/>
    <rect class="cls-2" x="79.1" y="287.53" width="9.13" height="6.02"/>
    <path class="cls-2" d="M227.47,276.89c0,.07-.07.14-.14.14h-31.44c-.07,0-.14-.07-.14-.14v-11.09c0-.07.07-.14.14-.14h20.28v-6.02h-20.28c-3.4,0-6.16,2.76-6.16,6.16v11.09s.01.09.01.14h-10.69s.01-.09.01-.14v-11.09c0-3.4-2.76-6.16-6.16-6.16h-18.45c-3.4,0-6.16,2.76-6.16,6.16v11.09s.01.09.01.14h-17v-27.88h-6.02v33.91h102.05c3.4,0,6.16-2.76,6.16-6.16v-27.75h-6.02v27.75ZM154.31,276.89v-11.09c0-.07.07-.14.14-.14h18.45c.07,0,.14.07.14.14v11.09c0,.07-.07.14-.14.14h-18.45c-.07,0-.14-.07-.14-.14"/>
    <rect class="cls-2" x="240.22" y="249.15" width="6.02" height="33.91"/>
    <path class="cls-2" d="M107.31,287.39c0,.07-.07.14-.14.14h-12.58v6.02h12.58c3.4,0,6.16-2.76,6.16-6.16v-27.66h-6.02v27.66Z"/>
    <path class="cls-2" d="M95.37,259.73h-6.02v17.16c0,.07-.07.14-.14.14h-22.82s.01-.09.01-.14v-11.09c0-3.4-2.76-6.16-6.16-6.16h-28.86c-3.4,0-6.16,2.76-6.16,6.16v11.09c0,3.4,2.76,6.16,6.16,6.16h57.82c3.4,0,6.16-2.76,6.16-6.16v-17.16ZM60.38,276.89c0,.07-.07.14-.14.14h-28.86c-.07,0-.14-.07-.14-.14v-11.09c0-.07.07-.14.14-.14h28.86c.07,0,.14.07.14.14v11.09Z"/>
    <rect class="cls-2" x="153.07" y="249.15" width="9.13" height="6.02"/>
    <rect class="cls-2" x="165.16" y="249.15" width="9.13" height="6.02"/>
  </g>
</svg>